# xmcd
#
# Track frame offsets:
#	150
#	16418
#	31198
#	43560
#	58945
#	75450
#	86473
#	104650
#	120133
#	134345
#	148120
#	160793
#	176070
#	190070
#
# Disc length: 2793 seconds
#
# Revision: 0
# Processed by: cddbd v1.5.1PL2 Copyright (c) Steve Scherf et al.
# Submitted via: SynApp - FreeCDDB Version: 2.2
#
DISCID=b10ae70e
DTITLE=Fred Rai - Dein bester Freund
DYEAR=1995
DGENRE=Country
TTITLE0=Sie nannte ihr Pony, voll Zärtlichkeit Jonny
TTITLE1=Einsam ruhen wir am Lagerfeuer (Swanee River)
TTITLE2=Die Scheune blüht
TTITLE3=Dein bester Freund
TTITLE4=Hoch auf dem gelben Wagen
TTITLE5=True Love
TTITLE6=Warum muß ich gehen
TTITLE7=Auf Kameraden sattelt die Pferde
TTITLE8=Sperr' mich nicht in einen Käfig
TTITLE9=Am Sonntag darf ich endlich wieder Cowboy sein
TTITLE10=Schwarze Nacht und rabenschwarze Pferde
TTITLE11=Blankenstein Husar
TTITLE12=Das alte Pferd von Rocky Docky
TTITLE13=Am Lagerfeuer sitzen wir (Amazing Grace)
EXTD=
EXTT0=
EXTT1=
EXTT2=
EXTT3=
EXTT4=
EXTT5=
EXTT6=
EXTT7=
EXTT8=
EXTT9=
EXTT10=
EXTT11=
EXTT12=
EXTT13=
PLAYORDER=
